<svg width="128" height="128" viewBox="0 0 128 128" fill="none" xmlns="http://www.w3.org/2000/svg">
<rect width="128" height="128" fill="#1B1716"/>
<path fill-rule="evenodd" clip-rule="evenodd" d="M64 24.0267C41.9262 24.0267 24.0267 41.9186 24.0267 64C24.0267 86.0814 41.9262 103.973 64 103.973C86.0738 103.973 103.973 86.0814 103.973 64C103.973 41.9265 86.0736 24.0267 64 24.0267ZM19.9734 64C19.9734 39.6796 39.6882 19.9734 64 19.9734C88.3121 19.9734 108.027 39.6879 108.027 64C108.027 88.3205 88.3119 108.027 64 108.027C39.6882 108.027 19.9734 88.3205 19.9734 64Z" fill="#FFEBD2"/>
<path fill-rule="evenodd" clip-rule="evenodd" d="M81.3804 53.5101L70.2745 53.0481L77.8216 44.8767L74.7817 41.8448L66.6022 49.3677L66.1563 38.2617H61.868L61.4059 49.3677L53.2345 41.8205L50.2027 44.8604L57.7336 53.0399L46.6196 53.4777V57.7742L57.7255 58.2362L50.1783 66.4076L53.2183 69.4395L61.2681 62.0301L61.6248 80.0266L55.1963 80.4968V84.4933L61.7221 84.9878L61.8437 91.238H66.132L66.2617 84.9959L72.8523 84.4933V80.4968L66.359 80.0266L66.7238 62.0382L74.7655 69.4557L77.7973 66.4238L70.2745 58.2443L81.3804 57.7985V53.5101Z" fill="#FFEBD2"/>
</svg>
