<?xml version="1.0" encoding="UTF-8" standalone="no"?>
<!DOCTYPE svg PUBLIC "-//W3C//DTD SVG 1.1//EN" "http://www.w3.org/Graphics/SVG/1.1/DTD/svg11.dtd">
<svg width="100%" height="100%" viewBox="0 0 50 50" version="1.1" xmlns="http://www.w3.org/2000/svg" xmlns:xlink="http://www.w3.org/1999/xlink" xml:space="preserve" xmlns:serif="http://www.serif.com/" style="fill-rule:evenodd;clip-rule:evenodd;stroke-linejoin:round;stroke-miterlimit:2;">
    <g transform="matrix(0.721351,0,0,0.811444,6.54562,5.10326)">
        <path d="M27.411,7.92C27.411,7.08 26.645,6.399 25.7,6.399C25.7,6.399 25.699,6.399 25.698,6.399C24.754,6.399 23.988,7.08 23.988,7.92C23.988,14.049 23.988,36.907 23.988,43.037C23.988,43.877 24.754,44.558 25.698,44.558C25.699,44.558 25.7,44.558 25.7,44.558C26.645,44.558 27.411,43.877 27.411,43.037C27.411,36.907 27.411,14.049 27.411,7.92Z"/>
    </g>
    <g transform="matrix(0.000599295,-0.721351,0.258566,0.000214816,18.4279,54.7844)">
        <path d="M27.411,11.171C27.411,8.536 26.645,6.399 25.7,6.399C25.7,6.399 25.699,6.399 25.698,6.399C24.754,6.399 23.988,8.536 23.988,11.171C23.988,18.502 23.988,32.454 23.988,39.785C23.988,42.421 24.754,44.558 25.698,44.558C25.699,44.558 25.7,44.558 25.7,44.558C26.645,44.558 27.411,42.421 27.411,39.785C27.411,32.454 27.411,18.502 27.411,11.171Z"/>
    </g>
    <g transform="matrix(0.000599295,-0.721351,0.579332,0.000481307,10.2753,38.6396)">
        <path d="M27.411,8.529C27.411,7.352 26.645,6.399 25.7,6.399C25.7,6.399 25.699,6.399 25.698,6.399C24.754,6.399 23.988,7.352 23.988,8.529C23.988,15.216 23.988,35.741 23.988,42.428C23.988,43.604 24.754,44.558 25.698,44.558C25.699,44.558 25.7,44.558 25.7,44.558C26.645,44.558 27.411,43.604 27.411,42.428C27.411,35.741 27.411,15.216 27.411,8.529Z"/>
    </g>
    <g transform="matrix(0.509521,-0.510622,0.393855,0.393005,1.94156,23.2426)">
        <path d="M27.411,8.617C27.411,7.392 26.645,6.399 25.7,6.399C25.7,6.399 25.699,6.399 25.698,6.399C24.754,6.399 23.988,7.392 23.988,8.617C23.988,15.364 23.988,35.593 23.988,42.34C23.988,43.565 24.754,44.558 25.698,44.558C25.699,44.558 25.7,44.558 25.7,44.558C26.645,44.558 27.411,43.565 27.411,42.34C27.411,35.593 27.411,15.364 27.411,8.617Z"/>
    </g>
    <g transform="matrix(-0.51096,-0.509182,0.392744,-0.394115,28.1955,43.2602)">
        <path d="M27.411,8.617C27.411,7.392 26.645,6.399 25.7,6.399C25.7,6.399 25.699,6.399 25.698,6.399C24.754,6.399 23.988,7.392 23.988,8.617C23.988,15.364 23.988,35.593 23.988,42.34C23.988,43.565 24.754,44.558 25.698,44.558C25.699,44.558 25.7,44.558 25.7,44.558C26.645,44.558 27.411,43.565 27.411,42.34C27.411,35.593 27.411,15.364 27.411,8.617Z"/>
    </g>
</svg>
