<?xml version="1.0" encoding="UTF-8" standalone="no"?>
<svg
   xmlns:osb="http://www.openswatchbook.org/uri/2009/osb"
   xmlns:dc="http://purl.org/dc/elements/1.1/"
   xmlns:cc="http://creativecommons.org/ns#"
   xmlns:rdf="http://www.w3.org/1999/02/22-rdf-syntax-ns#"
   xmlns:svg="http://www.w3.org/2000/svg"
   xmlns="http://www.w3.org/2000/svg"
   xmlns:xlink="http://www.w3.org/1999/xlink"
   id="svg5705"
   version="1.1"
   viewBox="0 0 3000 3000"
   height="3000mm"
   width="3000mm">
  <defs
     id="defs5699">
    <linearGradient
       osb:paint="gradient"
       id="linearGradient982">
      <stop
         id="stop978"
         offset="0"
         style="stop-color:#f0827d;stop-opacity:1;" />
      <stop
         id="stop980"
         offset="1"
         style="stop-color:#f0827d;stop-opacity:0;" />
    </linearGradient>
    <linearGradient
       id="linearGradient923">
      <stop
         id="stop919"
         offset="0"
         style="stop-color:#000000;stop-opacity:1;" />
      <stop
         id="stop921"
         offset="1"
         style="stop-color:#000000;stop-opacity:0;" />
    </linearGradient>
    <linearGradient
       id="linearGradient915">
      <stop
         id="stop911"
         offset="0"
         style="stop-color:#ff6255;stop-opacity:1;" />
      <stop
         id="stop913"
         offset="1"
         style="stop-color:#ff6255;stop-opacity:0;" />
    </linearGradient>
    <linearGradient
       osb:paint="solid"
       id="linearGradient868">
      <stop
         id="stop866"
         offset="0"
         style="stop-color:#000000;stop-opacity:1;" />
    </linearGradient>
    <linearGradient
       osb:paint="gradient"
       id="linearGradient1607">
      <stop
         id="stop1603"
         offset="0"
         style="stop-color:#ff6255;stop-opacity:1" />
      <stop
         id="stop1605"
         offset="1"
         style="stop-color:#da5b51;stop-opacity:0;" />
    </linearGradient>
    <linearGradient
       id="linearGradient6891-7">
      <stop
         style="stop-color:#ff8c8c;stop-opacity:1;"
         offset="0"
         id="stop6887" />
      <stop
         style="stop-color:#ff8c8c;stop-opacity:0;"
         offset="1"
         id="stop6889" />
    </linearGradient>
    <linearGradient
       xlink:href="#linearGradient6891-7"
       id="linearGradient6893"
       x1="116.28441"
       y1="131.06845"
       x2="330.48346"
       y2="131.06845"
       gradientUnits="userSpaceOnUse"
       gradientTransform="matrix(1.0176293,0,0,1.043284,-52.786314,-431.941)" />
    <radialGradient
       gradientUnits="userSpaceOnUse"
       gradientTransform="matrix(1,0,0,1.4006544,0,-10.327923)"
       r="11.343032"
       fy="25.777636"
       fx="25.051212"
       cy="25.777636"
       cx="25.051212"
       id="radialGradient1672"
       xlink:href="#linearGradient923" />
    <linearGradient
       gradientUnits="userSpaceOnUse"
       y2="-360.58929"
       x2="294.47836"
       y1="-366.6369"
       x1="-5.883111"
       id="linearGradient917"
       xlink:href="#linearGradient915" />
    <linearGradient
       gradientTransform="translate(-161.77381,-52.916668)"
       gradientUnits="userSpaceOnUse"
       y2="137.55695"
       x2="1492.8649"
       y1="137.55695"
       x1="956.32697"
       id="linearGradient925"
       xlink:href="#linearGradient923" />
    <radialGradient
       gradientUnits="userSpaceOnUse"
       gradientTransform="matrix(1,0,0,1.4006544,0,-10.327923)"
       r="11.343032"
       fy="25.777636"
       fx="25.051212"
       cy="25.777636"
       cx="25.051212"
       id="radialGradient1672-5"
       xlink:href="#linearGradient923" />
  </defs>
  <metadata
     id="metadata5702">
    <rdf:RDF>
      <cc:Work
         rdf:about="">
        <dc:format>image/svg+xml</dc:format>
        <dc:type
           rdf:resource="http://purl.org/dc/dcmitype/StillImage" />
        <dc:title></dc:title>
      </cc:Work>
    </rdf:RDF>
  </metadata>
  <g
     transform="translate(0,2703)"
     id="layer1">
    <flowRoot
       transform="matrix(0.26458333,0,0,0.26458333,0,-111)"
       style="font-style:normal;font-variant:normal;font-weight:bold;font-stretch:normal;font-size:38.4746666px;line-height:1.25;font-family:Arial;-inkscape-font-specification:'Arial, Bold';font-variant-ligatures:normal;font-variant-caps:normal;font-variant-numeric:normal;font-feature-settings:normal;text-align:start;letter-spacing:0px;word-spacing:0px;writing-mode:lr-tb;text-anchor:start;fill:#000000;fill-opacity:1;stroke:none"
       id="flowRoot6488"
       xml:space="preserve"><flowRegion
         id="flowRegion6490"><rect
           y="859.18414"
           x="36.36549"
           height="76.771591"
           width="476.79199"
           id="rect6492" /></flowRegion><flowPara
         id="flowPara6494"></flowPara></flowRoot>    <text
       id="text6508"
       y="140.38005"
       x="16.570711"
       style="font-style:normal;font-variant:normal;font-weight:bold;font-stretch:normal;font-size:10.17975521px;line-height:1.25;font-family:Arial;-inkscape-font-specification:'Arial, Bold';font-variant-ligatures:normal;font-variant-caps:normal;font-variant-numeric:normal;font-feature-settings:normal;text-align:start;letter-spacing:0px;word-spacing:0px;writing-mode:lr-tb;text-anchor:start;fill:#000000;fill-opacity:1;stroke:none;stroke-width:0.26458332"
       xml:space="preserve"><tspan
         style="stroke-width:0.26458332"
         y="149.54951"
         x="16.570711"
         id="tspan6506" /></text>
    <rect
       y="-136.51117"
       x="-1017.2278"
       height="408.38782"
       width="760.64905"
       id="rect6512"
       style="opacity:1;fill:#ffffff;fill-opacity:1;paint-order:normal" />
    <ellipse
       ry="1261.2449"
       rx="1281.9569"
       cy="-1179.1354"
       cx="1500.5835"
       id="path6514"
       style="opacity:1;fill:#f0827d;fill-opacity:1;stroke-width:4.59408379;paint-order:normal" />
    <ellipse
       ry="1173.7864"
       rx="1193.0621"
       cy="-1174.4399"
       cx="1598.8354"
       id="path6516"
       style="opacity:1;fill:#ffffff;fill-opacity:1;stroke-width:4.59408379;paint-order:normal" />
    <g
       transform="matrix(37.224258,0,0,37.856599,638.25014,-2108.8654)"
       id="g6556"
       style="clip-rule:evenodd;fill:#f0827d;fill-opacity:1;fill-rule:evenodd;stroke-linejoin:round;stroke-miterlimit:2">
      <g
         style="fill:#f0827d;fill-opacity:1"
         transform="matrix(0.721351,0,0,0.811444,6.54562,5.10326)"
         id="g6520">
        <path
   style="fill:#f0827d;fill-opacity:1"
   d="m 27.411,7.92 c 0,-0.84 -0.766,-1.521 -1.711,-1.521 0,0 -10e-4,0 -0.002,0 -0.944,0 -1.71,0.681 -1.71,1.521 0,6.129 0,28.987 0,35.117 0,0.84 0.766,1.521 1.71,1.521 0.001,0 0.002,0 0.002,0 0.945,0 1.711,-0.681 1.711,-1.521 0,-6.13 0,-28.988 0,-35.117 z"
   id="path6518" />

    </g>
      <g
         style="fill:#f0827d;fill-opacity:1"
         transform="matrix(5.99295e-4,-0.721351,0.258566,2.14816e-4,18.4279,54.7844)"
         id="g6524">
        <path
   style="fill:#f0827d;fill-opacity:1"
   d="m 27.411,11.171 c 0,-2.635 -0.766,-4.772 -1.711,-4.772 0,0 -10e-4,0 -0.002,0 -0.944,0 -1.71,2.137 -1.71,4.772 0,7.331 0,21.283 0,28.614 0,2.636 0.766,4.773 1.71,4.773 0.001,0 0.002,0 0.002,0 0.945,0 1.711,-2.137 1.711,-4.773 0,-7.331 0,-21.283 0,-28.614 z"
   id="path6522" />

    </g>
      <g
         style="fill:#f0827d;fill-opacity:1"
         transform="matrix(5.99295e-4,-0.721351,0.579332,4.81307e-4,10.2753,38.6396)"
         id="g6528">
        <path
   style="fill:#f0827d;fill-opacity:1"
   d="m 27.411,8.529 c 0,-1.177 -0.766,-2.13 -1.711,-2.13 0,0 -10e-4,0 -0.002,0 -0.944,0 -1.71,0.953 -1.71,2.13 0,6.687 0,27.212 0,33.899 0,1.176 0.766,2.13 1.71,2.13 0.001,0 0.002,0 0.002,0 0.945,0 1.711,-0.954 1.711,-2.13 0,-6.687 0,-27.212 0,-33.899 z"
   id="path6526" />

    </g>
      <g
         style="fill:#f0827d;fill-opacity:1"
         transform="matrix(0.509521,-0.510622,0.393855,0.393005,1.94156,23.2426)"
         id="g6532">
        <path
   style="fill:#f0827d;fill-opacity:1"
   d="m 27.411,8.617 c 0,-1.225 -0.766,-2.218 -1.711,-2.218 0,0 -10e-4,0 -0.002,0 -0.944,0 -1.71,0.993 -1.71,2.218 0,6.747 0,26.976 0,33.723 0,1.225 0.766,2.218 1.71,2.218 0.001,0 0.002,0 0.002,0 0.945,0 1.711,-0.993 1.711,-2.218 0,-6.747 0,-26.976 0,-33.723 z"
   id="path6530" />

    </g>
      <g
         style="fill:#f0827d;fill-opacity:1"
         transform="matrix(-0.51096,-0.509182,0.392744,-0.394115,28.1955,43.2602)"
         id="g6536">
        <path
   style="fill:#f0827d;fill-opacity:1"
   d="m 27.411,8.617 c 0,-1.225 -0.766,-2.218 -1.711,-2.218 0,0 -10e-4,0 -0.002,0 -0.944,0 -1.71,0.993 -1.71,2.218 0,6.747 0,26.976 0,33.723 0,1.225 0.766,2.218 1.71,2.218 0.001,0 0.002,0 0.002,0 0.945,0 1.711,-0.993 1.711,-2.218 0,-6.747 0,-26.976 0,-33.723 z"
   id="path6534" />

    </g>
    </g>
  </g>
</svg>
