<?xml version="1.0" standalone="no"?>
<!DOCTYPE svg PUBLIC "-//W3C//DTD SVG 20010904//EN"
 "http://www.w3.org/TR/2001/REC-SVG-20010904/DTD/svg10.dtd">
<svg version="1.0" xmlns="http://www.w3.org/2000/svg"
 width="1102.000000pt" height="715.000000pt" viewBox="0 0 1102.000000 715.000000"
 preserveAspectRatio="xMidYMid meet">
<metadata>
Created by potrace 1.16, written by Peter Selinger 2001-2019
</metadata>
<g transform="translate(0.000000,715.000000) scale(0.100000,-0.100000)"
fill="#000000" stroke="none">
<path d="M1800 4572 c0 -878 -1 -942 -18 -1003 -46 -164 -157 -272 -315 -305
-144 -31 -303 22 -429 143 -38 37 -79 85 -89 106 -11 20 -25 37 -32 37 -7 0
-97 -85 -201 -189 l-189 -190 28 -38 c138 -182 405 -340 664 -393 121 -24 310
-27 432 -5 331 58 599 294 689 605 12 41 27 84 33 95 9 15 13 275 15 1048 l3
1027 -296 0 -295 0 0 -938z"/>
<path d="M9638 4864 l-165 -167 -124 61 c-91 45 -154 68 -238 88 -107 25 -124
26 -305 22 -169 -5 -201 -8 -279 -32 -683 -205 -1010 -914 -697 -1515 23 -43
54 -96 70 -118 l29 -38 -186 -187 -186 -186 126 -128 126 -129 189 188 189
189 84 -46 c99 -53 218 -100 309 -122 87 -22 355 -30 446 -15 226 39 436 143
597 298 277 267 393 619 321 983 -21 110 -85 258 -162 373 l-45 69 162 162
162 162 -126 124 c-69 69 -127 126 -129 128 -2 1 -77 -72 -168 -164z m-704
-489 c77 -16 156 -44 156 -54 0 -4 -171 -178 -380 -386 -354 -352 -382 -377
-394 -359 -45 64 -61 259 -30 378 9 33 19 63 23 66 4 3 21 30 37 59 83 155
259 278 429 301 86 11 84 11 159 -5z m460 -442 c51 -195 -21 -424 -178 -569
-168 -157 -386 -196 -589 -106 l-59 25 389 389 388 388 17 -33 c9 -18 24 -60
32 -94z"/>
<path d="M6395 4864 c-73 -16 -120 -32 -195 -68 -68 -33 -103 -58 -172 -127
l-88 -86 0 124 0 123 -295 0 -295 0 0 -1035 0 -1035 293 2 292 3 5 650 5 650
34 72 c71 153 217 243 391 243 123 0 208 -37 284 -121 49 -54 67 -88 94 -174
13 -43 16 -144 19 -687 l4 -638 280 0 279 0 0 698 c-1 641 -2 704 -19 787 -46
219 -135 369 -290 486 -142 108 -246 139 -461 138 -80 -1 -154 -3 -165 -5z"/>
<path d="M2900 4112 c0 -582 3 -730 14 -785 8 -37 19 -73 24 -80 5 -7 15 -30
22 -52 61 -193 248 -373 460 -445 93 -32 316 -40 425 -15 164 36 295 111 394
222 l51 58 0 -127 0 -128 290 0 290 0 0 1035 0 1035 -290 0 -290 0 0 -596 c0
-643 -4 -703 -50 -794 -101 -198 -359 -287 -554 -191 -119 58 -191 164 -216
316 -6 34 -10 319 -10 663 l0 602 -280 0 -280 0 0 -718z"/>
</g>
</svg>
