<svg width="250" height="250" viewBox="0 0 250 250" fill="none" xmlns="http://www.w3.org/2000/svg">
<path fill-rule="evenodd" clip-rule="evenodd" d="M125 11.508C62.3283 11.508 11.508 62.3067 11.508 125C11.508 187.693 62.3283 238.492 125 238.492C187.672 238.492 238.492 187.693 238.492 125C238.492 62.329 187.671 11.508 125 11.508ZM0 125C0 55.9496 55.974 0 125 0C194.027 0 250 55.9733 250 125C250 194.05 194.026 250 125 250C55.974 250 0 194.05 0 125Z" fill="#FF7B7C"/>
<path fill-rule="evenodd" clip-rule="evenodd" d="M174.346 95.2174L142.814 93.9055L164.242 70.7054L155.611 62.0974L132.388 83.4563L131.122 51.9243H118.947L117.635 83.4563L94.4347 62.0284L85.8267 70.6594L107.209 93.8825L75.6537 95.1254V107.324L107.186 108.636L85.7577 131.836L94.3887 140.444L117.244 119.407L118.256 170.503L100.005 171.838V183.185L118.532 184.589L118.878 202.334H131.053L131.421 184.612L150.133 183.185V171.838L131.698 170.503L132.733 119.43L155.565 140.49L164.173 131.882L142.814 108.659L174.346 107.393V95.2174Z" fill="#FF7B7C"/>
</svg>
