<svg width="264" height="79" viewBox="0 0 264 79" fill="none" xmlns="http://www.w3.org/2000/svg">
<path fill-rule="evenodd" clip-rule="evenodd" d="M99.2859 71.7429C96.084 73.5579 92.215 74.492 87.5455 74.492C76.4723 74.492 71.1357 68.1131 68.841 61.7075C67.0533 56.7431 67.0266 53.4335 67.0266 50.6844V16.441H83.1162V49.9638C83.1162 55.542 86.5316 60.5598 93.2556 60.5598C99.9796 60.5598 104.889 55.7822 104.889 50.6311V16.3342H120.845V72.8906H106.97L105.343 65.9245C104.542 67.8729 102.595 69.7946 99.3126 71.7429" fill="#FFEBD2"/>
<path fill-rule="evenodd" clip-rule="evenodd" d="M147.715 16.655L149.583 24.6353C153.585 18.9236 158.361 15.7475 164.072 15.0536C175.145 13.6924 182.776 18.5767 185.951 25.0891C187.659 28.6122 188.459 34.6708 188.459 43.2117V72.8644H173.064V42.5444C173.064 32.5089 170.209 28.6389 161.537 28.6389C155.96 28.6389 150.357 34.5641 150.357 44.733V72.9178H134.961V16.655H147.688H147.715Z" fill="#FFEBD2"/>
<path fill-rule="evenodd" clip-rule="evenodd" d="M244.119 44.4929C244.119 49.4039 242.625 53.3807 239.663 56.3433C236.808 59.3059 233.286 60.8006 229.176 60.8006C226.935 60.8006 224.854 60.3468 222.933 59.4661L243.318 39.0748C243.852 40.7296 244.119 42.5445 244.119 44.4929V44.4929ZM214.128 44.4929C214.128 39.8221 215.622 36.0588 218.584 32.9628C221.652 29.8934 225.201 28.3987 229.176 28.3987C231.445 28.3987 233.579 28.8792 235.527 29.8667L214.981 50.4181C214.421 48.6299 214.128 46.6548 214.128 44.4929ZM263.464 18.9237L254.979 10.4363L245.826 19.591C240.97 16.2547 235.367 14.6266 229.07 14.6266C220.638 14.6266 213.567 17.4825 207.75 23.3009C201.934 29.1194 199.079 36.0855 199.079 44.4128C199.079 50.7651 200.733 56.37 204.095 61.3611L195.93 69.5282L204.415 78.0157L212.5 69.9286C217.303 73.2382 222.799 74.8663 229.07 74.8663C237.395 74.8663 244.466 71.9037 250.282 65.845C256.099 59.7863 258.954 52.7401 258.954 44.4128C258.954 38.2741 257.407 32.9094 254.258 28.1585L263.464 18.9504V18.9237Z" fill="#FFEBD2"/>
<path fill-rule="evenodd" clip-rule="evenodd" d="M37.2222 0V45.6401C37.2222 54.181 32.3126 59.3322 25.9355 59.3322C21.1593 59.3322 17.237 56.5297 14.3552 49.7504L0 57.971C4.96296 69.1808 14.2218 74.8391 27.6432 74.8391C35.0609 74.8391 41.3313 71.9833 46.2409 66.4051C51.1505 60.6934 53.6587 53.5137 53.6587 44.9729L53.3652 0.0266901H37.2222V0Z" fill="#FFEBD2"/>
</svg>
